<svg xmlns="http://www.w3.org/2000/svg" viewBox="0 0 100 100" fill="#30107d">
  <circle cx="50" cy="50" r="40" />
  <g id="logo" transform="translate(30,32)">
    <path id="Path_6" data-name="Path 6"
      d="M38.651,5.2H30.387a3.761,3.761,0,0,0-1.271.254L22.123,8a5.939,5.939,0,0,1-2.161.381A6.458,6.458,0,0,1,17.8,8L10.807,5.454A4.517,4.517,0,0,0,9.536,5.2H0L2.543,9.777h0A3.7,3.7,0,0,0,4.7,11.557L11.7,14.1a6.589,6.589,0,0,1,4.323,6.1V32.917l3.941,6.738h0L22,36.222,23.9,32.917V20.2a6.3,6.3,0,0,1,4.323-6.1l5.213-1.907,1.78-.636.509-.254a4.383,4.383,0,0,0,1.526-1.526L39.922,5.2ZM36.235,9.4a2.969,2.969,0,0,1-1.526,1.271L27.717,13.21A7.675,7.675,0,0,0,22.758,20.2v12.46l-2.924,5.086h0V12.828L38.27,5.836Z"
      transform="translate(0 -5.2)" fill="#fff" />
  </g>
</svg>